<svg width="142" height="33" fill="none" xmlns="http://www.w3.org/2000/svg"><path d="M0 6.74V32.6h3.76V13.88H4l7.72 18.7h3.12l7.72-18.7h.25v18.73h3.75V6.74h-4.79l-8.33 20.1h-.31L4.79 6.75H0zM41.13 33c4.28 0 7.31-2.08 8.18-5.24l-3.61-.65c-.7 1.84-2.36 2.77-4.53 2.77-3.27 0-5.47-2.1-5.57-5.84h13.96V22.7c0-7-4.25-9.75-8.7-9.75-5.47 0-9.07 4.12-9.07 10.08 0 6.03 3.55 9.97 9.34 9.97zm-5.52-11.79c.15-2.75 2.17-5.14 5.28-5.14 2.96 0 4.9 2.18 4.92 5.14h-10.2zm32.9-3.27c-.8-3.02-3.18-4.99-7.43-4.99-4.43 0-7.58 2.31-7.58 5.75 0 2.75 1.69 4.59 5.37 5.4l3.33.71c1.89.42 2.77 1.25 2.77 2.47 0 1.5-1.62 2.68-4.13 2.68-2.29 0-3.76-.98-4.22-2.88l-3.7.55c.65 3.44 3.54 5.37 7.95 5.37 4.74 0 8.02-2.49 8.02-6 0-2.74-1.76-4.43-5.36-5.26l-3.12-.7c-2.16-.5-3.1-1.23-3.08-2.54-.02-1.5 1.62-2.55 3.8-2.55 2.37 0 3.47 1.3 3.92 2.6l3.46-.6zm13.75-4.74h-4.02V8.57H74.4v4.65h-2.87v3.03h2.87v11.45c0 3.53 2.71 5.23 5.73 5.17a7.42 7.42 0 002.48-.4l-.69-3.12c-.26.05-.73.16-1.34.16-1.24 0-2.35-.4-2.35-2.59V16.24h4.02V13.2zM94.55 33c5.54 0 9.15-4 9.15-10 0-6.04-3.61-10.05-9.15-10.05s-9.15 4-9.15 10.04c0 6 3.62 10.01 9.15 10.01zm.01-3.17c-3.61 0-5.3-3.12-5.3-6.85 0-3.71 1.69-6.87 5.3-6.87 3.6 0 5.28 3.16 5.28 6.87 0 3.73-1.68 6.85-5.28 6.85zm12.62-20.94h1.05V5.52h2.13l1.85 3.37h1.22l-1.97-3.56c1.11-.37 1.63-1.27 1.63-2.42 0-1.52-.92-2.64-2.96-2.64h-2.95v8.62zm1.05-4.3v-3.4h1.86c1.42 0 1.96.69 1.96 1.72s-.54 1.67-1.94 1.67h-1.88zm10.61 1.66c0 1.21-.94 1.77-1.69 1.77-.83 0-1.43-.6-1.43-1.55V2.43h-1v4.1c0 1.66.88 2.45 2.1 2.45 1 0 1.65-.52 1.95-1.18h.07v1.1h1V2.41h-1v3.83zm7.48-2.38c-.31-.91-1.02-1.53-2.31-1.53-1.39 0-2.4.78-2.4 1.87 0 .9.53 1.5 1.73 1.77l1.1.25c.65.15.96.46.96.91 0 .56-.6 1.01-1.53 1.01-.82 0-1.34-.35-1.52-1.04l-.95.23c.23 1.1 1.15 1.69 2.49 1.69 1.52 0 2.55-.82 2.55-1.94 0-.9-.57-1.47-1.74-1.75l-.97-.24c-.77-.19-1.12-.44-1.12-.94 0-.56.6-.96 1.4-.96.87 0 1.24.48 1.41.93l.9-.26zm6.27 0c-.31-.91-1.02-1.53-2.32-1.53-1.38 0-2.4.78-2.4 1.87 0 .9.54 1.5 1.74 1.77l1.1.25c.65.15.96.46.96.91 0 .56-.6 1.01-1.53 1.01-.82 0-1.34-.35-1.52-1.04l-.95.23c.23 1.1 1.15 1.69 2.49 1.69 1.52 0 2.55-.82 2.55-1.94 0-.9-.57-1.47-1.74-1.75L130 5.1c-.77-.19-1.12-.44-1.12-.94 0-.56.6-.96 1.4-.96.87 0 1.23.48 1.41.93l.9-.26zm1.64 5.02h1V2.42h-1V8.9zm.5-7.54c.4 0 .72-.3.72-.68 0-.37-.32-.67-.71-.67-.4 0-.72.3-.72.67 0 .37.33.68.72.68zm4.27 7.7c1.14 0 1.74-.61 1.94-1.03h.05v.87H142V4.63c0-2.05-1.58-2.29-2.42-2.29-.99 0-2.11.34-2.63 1.52l.96.33c.22-.47.75-.97 1.7-.97.93 0 1.38.48 1.38 1.31v.03c0 .48-.49.44-1.68.6-1.22.15-2.54.41-2.54 1.9 0 1.26.99 1.98 2.23 1.98zm.15-.9c-.8 0-1.38-.35-1.38-1.04 0-.76.7-1 1.49-1.1.42-.05 1.56-.17 1.73-.37v.91c0 .81-.64 1.6-1.84 1.6z" fill="#fff"/></svg>